<?xml version="1.0" standalone="no"?>
<!DOCTYPE svg PUBLIC "-//W3C//DTD SVG 20010904//EN"
 "http://www.w3.org/TR/2001/REC-SVG-20010904/DTD/svg10.dtd">
<svg version="1.0" xmlns="http://www.w3.org/2000/svg"
 width="800.000000pt" height="800.000000pt" viewBox="0 0 800.000000 800.000000"
 preserveAspectRatio="xMidYMid meet">

<g transform="translate(0.000000,800.000000) scale(0.100000,-0.100000)"
fill="#000000" stroke="none">
<path d="M3750 7494 c-19 -2 -80 -9 -135 -15 -1354 -142 -2520 -1090 -2945
-2394 -180 -555 -218 -1166 -109 -1745 116 -613 428 -1242 831 -1675 49 -53
58 -58 104 -62 57 -6 104 13 129 51 8 12 26 88 40 167 43 249 106 443 215 664
170 347 462 684 775 895 l74 50 93 -72 c246 -193 499 -313 782 -374 563 -119
1134 19 1588 385 l77 62 76 -51 c260 -175 524 -461 695 -749 141 -239 262
-572 295 -807 l6 -51 -108 -100 c-175 -163 -284 -250 -450 -361 -568 -381
-1284 -574 -1963 -532 -464 29 -876 139 -1276 340 -146 74 -181 82 -235 55
-67 -35 -90 -131 -46 -196 54 -81 507 -277 842 -364 324 -85 525 -109 895
-109 321 0 425 9 700 64 893 178 1695 716 2205 1480 314 470 495 953 572 1530
26 192 25 650 0 840 -82 603 -281 1124 -610 1590 -99 141 -124 168 -167 181
-103 31 -206 -71 -172 -169 5 -16 41 -71 79 -123 686 -930 812 -2188 325
-3244 -101 -219 -332 -598 -357 -585 -6 3 -25 55 -43 115 -174 579 -548 1092
-1037 1424 -147 100 -206 131 -249 131 -50 0 -63 -8 -164 -101 -211 -195 -470
-327 -762 -391 -91 -19 -134 -22 -320 -22 -237 0 -329 13 -514 75 -197 66
-416 195 -563 332 -101 95 -120 107 -166 107 -130 0 -575 -355 -810 -645 -233
-289 -417 -652 -507 -1003 l-11 -43 -56 78 c-272 378 -463 830 -547 1293 -38
210 -50 347 -49 585 0 428 70 801 223 1185 346 867 1056 1549 1930 1854 361
127 680 179 1075 179 480 -1 896 -90 1328 -284 119 -54 169 -61 218 -32 41 24
72 92 63 137 -10 57 -41 86 -141 133 -325 152 -663 249 -1045 299 -116 15
-592 28 -678 18z"/>
<path d="M3865 6360 c-478 -49 -893 -344 -1100 -783 -93 -196 -130 -384 -122
-622 6 -169 28 -287 80 -426 165 -439 544 -762 1007 -860 149 -31 391 -31 540
0 443 94 803 387 981 800 81 189 115 378 106 596 -26 628 -474 1151 -1092
1274 -119 23 -290 32 -400 21z m407 -303 c410 -107 723 -447 799 -867 18 -102
16 -305 -6 -405 -106 -502 -548 -864 -1056 -865 -199 0 -349 37 -521 127 -280
148 -484 419 -554 738 -26 116 -24 331 4 451 99 433 433 756 869 839 121 23
341 14 465 -18z"/>
</g>
</svg>
