<?xml version="1.0" encoding="UTF-8"?>
<svg id="Layer_1" data-name="Layer 1" xmlns="http://www.w3.org/2000/svg" viewBox="0 0 4892.06 7186.72">
  <path d="m3247.23,4886.37c-138.29-135.28-267.74-277.76-364.68-446.77,3.56-3.36,7.13-6.72,10.69-10.09,150.01,147.88,333.41,185.11,535.23,161.49,47.93-5.61,87.58,6.43,128.37,37.08,416.06,312.67,834.01,622.83,1251.24,933.94,21.79,16.25,41.98,34.65,67.32,55.71-25.01,14.61-49.67,9.69-72.68,9.7-782.49.51-1564.98.84-2347.47.8-326.88-.02-653.76-.87-980.63-1.48-107.28-.2-193.8,40.11-248.16,134.52-49.28,85.57-43.75,172.46,3.98,258.52,23.71,42.75,53.53,60.81,105.62,60.73,1145.54-1.69,2291.08-1.29,3436.62-1.33,83.39,0,120.43,21.3,119.37,69.09-1,45.09-38.73,66.49-116.95,66.49-1132.87-.02-2265.75-.04-3398.62-.05-111.12,0-163.65,43.81-180.21,153.14-6.69,44.16-3.59,88.03,13.32,130.58,32.48,81.71,57.23,99.39,144,99.39,1141.33,0,2282.65-.02,3423.98,0,16.86,0,34.39-2.4,50.45,1.31,35.36,8.17,62.77,27.67,63.5,67.8.76,41.58-28.77,58.56-63.74,66.43-16.1,3.62-33.59,1.31-50.46,1.31-1137.1.03-2274.21.01-3411.31,0-100.97,0-154.39,46.49-170.04,149.08-2.52,16.55-2.63,33.68-2.02,50.47,3.89,105.81,16.1,117.56,120.25,117.56,1122.34,0,2244.67,0,3367.01,0,16.88,0,33.78.58,50.63-.09,43.88-1.77,76.84,16.05,81.32,60.79,5.25,52.37-34.19,70.69-77.12,71.53-137.06,2.67-274.2,2.12-411.3,2.17-780.48.29-1560.96.48-2341.44.5-238.34,0-476.68-.95-715.01-.62-31.11.04-56.39-7.7-80.45-28.61-356.51-309.83-714.86-617.55-1069.94-929-136.33-119.58-153.82-280.27-55.65-404.58,40.55-51.35,99.97-73.52,160.14-103.27-271.25-84.16-314.23-450.05-3.01-566.72-68.86-30.83-131.52-61.6-172.15-125.5-115.31-181.33-6.1-417.18,207.98-434.77,155.23-12.76,311.6-7.39,467.13-22.05,255.83-24.11,498.33-82.37,693.76-262.81,159.36-147.13,248.71-337.13,319.5-537.53,5.61-15.88,10.58-31.99,15.85-47.99,8.21.2,16.42.4,24.63.61-110.16,568.14-451.78,985.12-881.15,1345.56,41.23,5.86,51,4.76,94.39-22.46,190.04-119.17,366.1-256.21,521.49-418.28,37.02-38.61,72.71-69.05,129.81-55.51,32.08,7.61,49.45-10.74,67.56-33.99,193.4-248.21,303.78-531.69,361.06-838.5,52.84-283.01,63.48-569.39,70.63-856.05.94-37.7-2.61-76.08-9.07-113.29-24.13-139.14-118.83-197.28-249.03-141.63-219.32,93.75-353.23,258.96-386.06,499.48-12.07,12.56-13.29,26.42-4.96,41.42-.74,6.46-1.48,12.91-2.22,19.37-18.91,48.41-17.1,97.13-3.14,146.36,11.82-43,35.03-83.39,25.06-129.92,15.09-35.32,30.18-70.63,48.74-114.09,56.09,70.49,95.16,140.48,114.4,221.17.48,2.03,1.48,4.98.55,6.16-47.72,60.11-2.47,142.78-40.87,197.85-30.69,44.02-66.47,84.71-94.05,132.35-17.26,29.82-39.75,1.58-48.92-12.89-49.33-77.86-151.99-129.73-123.25-246.48-78.35-105.79-2.33-189.44,39.58-278.26,28.31-60.01,67.25-116.36,70.16-188.86-25.41-4.56-42.45,8.38-59.11,18.68-61.03,37.7-117.46,81.13-170.84,129.55-71.22,64.6-123.73,131.64-106.79,238.16,8.01,50.38-9.3,104.36-28.94,153.81-29.15,73.39-55.47,90.92-136.17,85.92-23.77-1.47-27.64,10.92-33.26,28.08-9.12,27.85-18.23,56.1-31.28,82.21-50.87,101.74-54.68,105.31-165.31,86.54-27.42-4.65-39.19,8.03-54.03,20.46-39.42,33-85.59,52.19-133.08,69.13-25.87,9.23-39.37,1.48-40.61-27.69-2.15-50.76-.32-101.32,16.59-149.31,11.42-32.4,8.88-54.45-22.96-73.35-49.6-29.44-49.68-67.22-12.67-108.72,15.39-17.26,25.79-40.23,43.65-53.77,54.14-41.07,97.91-78.02,50.76-156.69-18.92-31.57,12.82-72.21,39.63-100.15,94.36-98.35,213.92-127.55,345.25-123.31,38.22,1.23,25.65,21.32,16.85,41.99-32.2,75.6-73.7,146.24-115.71,217.6,29.41,19.11,42.14-5.43,56.64-20.66,222.49-233.59,443.65-468.42,690.82-677,56.79-47.92,45.65-93.23-26.96-121.62-169.12-66.13-340.64-66.71-513.2-13.2-20.1,6.23-40.16,12.55-63.37,19.8,30.08,26.03,62.17,6.84,90.12,3.37,44.22-5.49,88.27-5.4,132.41-7.67,33.1-1.71,37.01,11.98,21.41,37.18-39.12,63.21-85.7,120.04-144.94,165.56-14.97,11.5-37.1,27.96-50.85,18.95-52.14-34.16-90.79,1.8-133.53,18.69-45.71,18.06-90.28,25.03-127.37-17.2-25.57-29.12-55.76-6.36-83.39-8.14-75.12-4.83-87.26-23.02-48.83-86.72,17.3-28.67,39.44-54.06,36.85-90.86-.51-7.25,4.57-18.06,10.55-22.13,102.46-69.9,177.08-190.45,325.57-176.8,100.65,9.25,200.56,29.51,302.32,23.25,22.07-1.36,46.54,6.01,70.06-16.53-84.09-70.43-173.93-123.73-283.08-139.18-19.7-2.79-36.52,6-54.2,13.52-53.02,22.55-108.41,33.09-166.45,29.56-24.19-1.47-54.43-4.88-61.85-24.63-22.46-59.77-69.73-53.18-117.21-55.89-54.67-3.12-101.36-16.34-116.44-82.93-9.57-42.26-66.25-39.5-91.56-71.15-12.79-16-40.93-25.5-37.43-47.4,4.17-26.12,35.58-27.05,55.9-32.49,45.75-12.24,104.02,1.49,113.69-71.16,2.02-15.19,26.11-10.49,39.57-6.71,32.28,9.07,65.58,17.19,95.26,32.08,29.16,14.64,49.02,23.91,73.86-9.42,20.28-27.21,54.51-27.49,87.23-16.5,105.47,35.42,168.34,112.14,213.09,209.62-24.96,15.12-45.96,5.77-66.21,6.87-44.04-7.36-88.09-14.71-132.13-22.07,22.62,27.37,47.14,40.58,76.87,39.53,0,0,1.72.6,1.73.6,3.02,8.13,8.55,10.32,16.44,6.95,260.46,95.55,506.4,228.84,777.05,298.03,63.42,16.21,127.44,29.76,192.65,31.32,93.62,2.24,134.34-42.74,131.41-135.83-1.43-45.24-13.94-87.5-33.07-127.4-34.69-72.38-88.97-88.45-158.74-49.72-129.36,71.8-228.96,43.22-298.1-89.68-15.72-30.21-35.34-42.83-66.48-48.83-77.93-15.04-146.78-42.78-162.97-133.89-4.13-23.23-25.64-32.28-40.32-46.82-43.01-42.6-90.77-81.21-120.51-142.23,37.22-15.73,72.93-21.46,110.26-21.79,56.86-.51,113.29,13.31,163.9-37.06,29.31-29.18,79.84-15.52,121.21-3.54,72.01,20.86,140.64,48.29,219.53,48.58,96.62.35,158.32,61.11,183.81,154.34,11.41,41.73,18.36,84.69,28.9,134.49-132.88-35.52-251.74-93.44-397.22-93.95,63.73,40.6,125.27,53.56,182.18,76.41,92.06,36.96,181.85,78.31,265.93,130.43,47.05,29.17,47.95,8.12,52.24-32.08,35.63-333.82-77.59-616.19-292.35-865.47-59.8-69.41-57.57-71.33-101.59-81.24,73,136.66,145.26,269.47,185.96,416.51-30.64,12.7-53.04-3.91-75.48-12.11-122.73-44.84-244.61-92.57-347.06-176.52-40.38-33.08-84.65-68.88-47.76-132.76,11.86-20.54-10.18-29.47-21.03-40.28-49.34-49.15-98.79-98.45-132.96-159.72-21.65-38.83-45.83-85.41-15.92-124.7,35.07-46.07,22.72-80.55-.21-123.44-19.77-36.98-25.97-79.45-31.66-121.58-5.06-37.45,10.79-45.21,42.55-39.27,8.29,1.55,16.53,3.38,24.87,4.58,83.73,12.11,162.25,42.9,249.51,48.73,98.98,6.62,174.34,78.51,228.83,163.04,17.01,26.39,34.94,40.11,67.31,48.33,74.34,18.87,118.71,76.12,150.12,143.15,45.88,97.92,65.44,203.7,90.45,307.84,26.99,112.36,51.87,225.46,100.81,331.06,11.03,23.81,17.2,51.98,47.57,68.08,39.92-77.16,52.13-160.22,65.35-242.63,6.32-39.43,7.91-79.64,10.93-119.56,7.1-93.81,2.97-178.29-77.62-251.78-67.75-61.78-108.24-149.45-126.93-242.82-11.8-58.93-3.7-110.09,58.51-136.72,28.44-12.17,23.14-27.47,11.81-49.3-27.41-52.84-36.49-111.48-50.98-168.57-17.79-70.11,9.58-115.32,72.28-139.95,30.19-11.85,40.07-28.21,43.74-59.3,7.72-65.41,32.27-125.67,67.39-181.98,16.6-26.63,27.83-31.42,48.82-4.06,39.77,51.82,83.81,101.48,105.95,163.5,13.34,37.38,30.2,53.5,71.44,50.05,60.67-5.07,94.05,16.74,99.11,87.87,4.84,68.11,6.04,134.09-7.78,200.47-3.19,15.34-15.46,27.16,8.78,40.78,119.15,66.96,140.89,113.26,120.39,242.5-19.08,120.28-113.45,257.59-226.1,325.78-48-123.17-64.21-253.84-93.28-380.48-29.58,4.87-21.41,23.42-21.85,35.94-8.39,240.16-16.26,480.33-24.05,720.51-5.61,172.81-25.72,344.4-44.46,516.04-10.51,96.26,33.5,138.51,125.99,104.91,182.29-66.22,323.74-185.23,425.87-350.4,27.22-28.1,50.34-58.1,50.93-106.25-44.37,19.22-60.12,55.62-80.94,87.25-31.65,30.91-62.85,62.31-95.17,92.49-11.86,11.07-22.56,30.7-40.41,26.28-21.17-5.24-11.73-28.34-15.15-43.54-16.38-72.78-15.85-147.01-9.22-220.28,4.48-49.46,1.42-110.27,78.63-115.25,18.77-1.21,18.19-25.6,24.28-40.9,16.35-41.08,32.85-82.5,63.34-115.53,11.14-12.07,28.7-30.18,40.16-28.09,76.76,13.98,114.68-47.64,167.33-80.38,21.76-13.53,41.94-20.35,53.58,13.11,23.76,68.35,44.44,138.64,61.85,207.77,27.47,109.06-44.49,209.46-59.24,317.38-8.02,58.7-82.52,96.86-136.83,133.94-83.45,56.97-170.15,109.77-240.74,183.51-12.62,13.19-34.92,26.3-28.32,45.44,7.72,22.37,32.94,10.29,50.12,10.32,63.47.12,125.55-8.77,186.73-27.54,74.41-22.83,139.36-50.25,167.16-134.9,16.88-51.41,55.3-94.33,101.56-126.39,36.84-25.53,76.14-39.56,116.1-8.03,21.96,17.33,34.18,11.65,52.24-6.54,23.48-23.65,51.66-42.8,78.62-62.81,42.89-31.83,85.17-33.59,123.6,7.3,23.3,24.8,49.93,16.22,76.54,10.4,48.59-10.65,116.99-20.26,137.13,13.07,22.03,36.46-28.63,85.61-59.73,120.89-22.09,25.06-34.15,42.55-12.45,74.71,19.14,28.36,13.25,55.71-22.6,70.98-19.29,8.21-36.53,23.21-56.38,27.72-58.08,13.18-116.9,16.37-113.89,103.5,1.25,36.26-44.07,53.36-79.27,62.99-102.99,28.19-199.97,4.77-294.31-37.39-33.08-14.79-27.59-30.03-1.95-48.12,44.03-31.07,87.18-63.4,135.16-98.46-34.32-10.91-57.23-3.51-80.79,6.02-191.08,77.32-384.41,147.9-585.57,195.18-28.84,6.78-61.75,16.23-66.61,50.03-4.92,34.18,26.69,50.07,50.63,66.12,112.26,75.27,227.25,80.09,344.01,10.11,21.67-12.99,44.54-24.77,63.84-40.75,105.93-87.73,272.05-24.46,351.19,51.25,9.65,9.23,19.82,25.77,5.63,30.83-54.93,19.59-80.71,79.36-153.15,84.44-63.88,4.48-119.53,12-176.6-21.1-50.94-29.54-51.89-27.9-11.66-69.38-11.88-.82-21.93-2.03-32-2.11-35.05-.28-76.85,6.23-86.11,38.66-11.23,39.31,35.69,44.28,61.9,57.29,85.53,42.45,178.33,61.89,271.06,80.6,44.42,8.96,84.11,3.34,124.12-25.55,47.37-34.2,101.58-57.7,161.99-66.05,48.76-6.74,88.53-.17,113.29,45.58,11.14,20.58,22.72,24.73,45.42,17.27,40-13.15,81.83-18.87,124.37-17.7,26.95.74,54.14,7.34,63.94,32.71,21.48,55.58,67.03,74,117.6,91.34,35.08,12.03,83.6,31.21,82.79,66.43-.68,30.06-51.91,44.39-84.65,56.32-41.55,15.15-86.34,19.11-76.95,83.1,3.62,24.67-22.64,33.63-45.43,32.15-31.39-2.04-63.43-3.52-93.72-11.09-47.46-11.87-91.38-24.88-118.21,34.85-6.61,14.71-27.97,15.97-45.37,17.63-113.7,10.82-272.07-88.33-318.17-201.69,81.28-23.07,167.16-8.5,246.2-34.39-16.74-13.65-39.47-15.43-62.25-18.87-276.42-41.73-550.81-93.49-820.32-168.71-24.79-6.92-49.45-17.48-70.49,4.7-20.02,21.12-15.37,48.22-6.93,71.81,34.47,96.31,87.31,181.71,158.81,255.21,8.68,8.92,18.81,22.14,31.78,15.06,17.85-9.75,8.36-26.04.36-37.26-18.96-26.6-5.95-34.21,18.79-32,54.31,4.85,110.05-.78,162.46,18.76,30.65,11.42,67.81,16.96,68.8,62.09.08,3.73,2.7,9.98,5.34,10.71,96.56,26.78,121.72,113.36,160.65,189.08,10.45,20.33,36.2,42.69,28.33,60.11-10.45,23.14-43.45,19.72-68.93,18.8-55.35-2.02-107.45,23.09-166.7,2.28-126.96-44.59-229.91-110.63-286.6-238.74-20.23-45.73-52.76-86.05-87.99-122.82-8.5-8.87-15.27-24.19-29.11-20.14-19.47,5.7-12.47,25.32-10.88,37.93,12.82,101.21,13.49,207.64,126.42,262.5,31.53,15.32,56.58,44.15,76.1,74.63,8.84,13.81,22.8,36.37,17.66,45.15-35.06,59.93,14.67,94.68,37.4,136.38,16.9,31.02,23.34,58.03-5.4,84.57-28.82,26.61-.71,55.66-3.31,83.49-1.96,21.07,1.32,49.14-15.47,58.7-19.21,10.94-37.03-12.98-52.42-25.48-31.1-25.26-51.27-58.49-106.48-43.46-30.83,8.4-39.97-46.95-50.41-77.28-11.84-34.39-13.26-66.17-64.03-75.08-45.97-8.07-54.88-60.33-58.75-102.48-5.72-62.19,8.66-120.4,47.28-172.57,33.29,17.47,40.38,54.92,67.44,75.39,13.91-9.46,8.03-22.56,5.09-32.78-42.92-149.39-85.65-298.85-130.33-447.72-23.17-77.18-63.85-114.5-112.1-109.25-56.35,6.13-105.29,62.64-104.02,138.75,7.36,442.61,28.85,883.89,160.98,1311.22,116.02,375.26,358.11,652.09,680.1,865.98,28.82,25.73,56.77,52.93,105.78,64.77-20.88-41.11-48.97-60.8-77.94-79.65Z" fill="#0d0d0d" stroke-width="0"/>
  <path d="m697.05,1019.52c39.94-15.56,71.15-14.01,102.77-10.19,46.49,5.62,90.26,15.64,139.52-4.54,47.73-19.55,93.22,11,130.53,44.79,19.19,17.38,36.66,25.9,66.95,20.34,143.33-26.32,246.53,73.99,233.37,220.91-3.04,33.89-20.16,23.71-38.28,15.95-57.92-24.77-115.61-50.13-173.87-74.09-22.78-9.37-45.28-24.42-81.9-8.48,70.35,50.96,136.82,99.01,203.18,147.2q55.37,40.21-4.74,75.88c-111.61,66.14-185.17,55.72-265.05-42.14-25.44-31.17-59.98-44.81-91.86-64.63-56.23-34.96-112.09-71.35-104.3-150.65,2.29-23.3-15.14-33.68-28.28-46.08-37.23-35.1-63.81-76.96-88.04-124.28Z" fill="#0d0d0d" stroke-width="0"/>
  <path d="m3193.47,814.62c-39.87,53.58-79.41,103.61-115.37,156.08-25.96,37.88-44.41,39.41-62.72-4.29-9.73-23.23-22.93-45.28-30.25-69.18-26.37-86.22,3.74-146.25,89.64-170.69,32.12-9.14,49.55-22.31,60.86-54.28,17.87-50.48,52.56-78.36,110.97-88.19,42.33-7.13,80.66-40.82,119.55-64.67,34.65-21.25,44.86-8.39,43.61,26.73-1.04,29.37,1.84,58.91-7.78,87.7-5.34,15.97-10.77,34.59,1.47,48.54,51.37,58.56,23.68,114.82-6.29,168.44-17.82,31.88-30.01,63.73-35.82,99.52-15.71,96.89-125.66,154.59-217.87,117.62-27.72-11.12-13.68-26.92-8.54-40.08,19.09-48.89,40.85-96.73,60.02-145.59,7.02-17.89,24.79-35.92-1.47-67.65Z" fill="#0d0d0d" stroke-width="0"/>
  <path d="m771.33,1532.58c40.82,49.34,87.09,78.53,129.6,111.26,33.66,25.91,21.71,36.94-8.13,50.22-93.91,41.76-155.73,17.19-195.86-78.85-5.61-13.41-8.49-28.65-24.52-34.75-106.94-40.73-100.22-158.33-172.4-230.78,155.1-14.06,288.23,7.9,411.54,78.84,46.28,26.63,77.33,106.07,64.02,159.95-8.54,34.57-24.81,16.12-41.27,9.45-51.23-20.75-94-63.09-162.97-65.34Z" fill="#0d0d0d" stroke-width="0"/>
  <path d="m3609.02,1496.04c-47.71,2.64-78.72,37.12-115.57,57.53-32.44,17.96-42.57,12.91-47.21-23.71-11.36-89.77,18.57-155.56,118.42-146.84,10.19.89,26.65,2.17,30.16-3.24,55.17-85.03,147.69-35.81,219.34-61.38,42.22-15.07,46.6,9.12,29.26,42.86-19.01,36.97-38.74,73.3-29.89,118.49,2.28,11.62-7.81,28.9-17.17,38.99-38.17,41.12-80.5,77.5-114.67,123.44-29.32,39.44-125.34,31.67-162.93-3.08-22.29-20.6.33-29.16,9.5-39.71,26.11-30.06,53.85-58.69,80.51-88.29,1.91-2.12.25-7.47.25-15.06Z" fill="#0d0d0d" stroke-width="0"/>
</svg>