<?xml version="1.0" standalone="no"?>
<!DOCTYPE svg PUBLIC "-//W3C//DTD SVG 20010904//EN"
 "http://www.w3.org/TR/2001/REC-SVG-20010904/DTD/svg10.dtd">
<svg version="1.0" xmlns="http://www.w3.org/2000/svg"
 width="500.000000pt" height="500.000000pt" viewBox="0 0 500.000000 500.000000"
 preserveAspectRatio="xMidYMid meet">

<g transform="translate(0.000000,500.000000) scale(0.100000,-0.100000)"
fill="#000000" stroke="none">
<path d="M2245 4040 c-123 -21 -167 -33 -275 -72 -506 -183 -886 -621 -1000
-1153 -27 -128 -37 -370 -21 -498 27 -200 79 -368 166 -535 271 -518 803 -842
1385 -842 751 0 1398 539 1537 1282 25 129 25 427 0 556 -102 546 -489 1003
-1007 1190 -245 89 -539 116 -785 72z m263 -346 c22 -6 23 -10 17 -63 -11
-103 -7 -98 -73 -93 -45 3 -62 0 -75 -13 -30 -29 -21 -69 23 -109 22 -20 45
-36 50 -36 6 0 36 9 67 20 32 11 58 20 60 20 3 0 43 -130 43 -141 0 -14 -395
-127 -407 -115 -2 2 -13 36 -23 75 -20 78 -23 72 48 86 l33 7 -31 35 c-40 45
-50 72 -50 133 0 86 38 145 115 181 40 19 154 26 203 13z m72 -686 c0 -64 29
-1055 35 -1195 l6 -143 -150 0 -151 0 0 34 c0 57 -29 1034 -35 1189 l-6 147
150 0 151 0 0 -32z"/>
</g>
</svg>
