<?xml version="1.0" standalone="no"?>
<!DOCTYPE svg PUBLIC "-//W3C//DTD SVG 20010904//EN"
 "http://www.w3.org/TR/2001/REC-SVG-20010904/DTD/svg10.dtd">
<svg version="1.0" xmlns="http://www.w3.org/2000/svg"
 width="500.000000pt" height="500.000000pt" viewBox="0 0 500.000000 500.000000"
 preserveAspectRatio="xMidYMid meet">

<g transform="translate(0.000000,500.000000) scale(0.100000,-0.100000)"
fill="#000000" stroke="none">
<path d="M2245 4040 c-123 -21 -167 -33 -275 -72 -438 -158 -797 -523 -948
-963 -92 -269 -107 -579 -41 -863 120 -521 514 -951 1028 -1123 727 -242 1527
85 1879 770 109 211 160 413 169 659 10 278 -45 527 -172 770 -205 392 -579
690 -1000 796 -194 49 -453 59 -640 26z m365 -558 c14 -10 33 -35 44 -56 24
-49 15 -97 -29 -144 -31 -34 -38 -37 -89 -37 -47 0 -59 4 -85 29 -56 54 -63
125 -19 182 43 54 123 66 178 26z m-168 -269 c106 -53 56 -243 -64 -243 -124
0 -186 146 -96 229 42 40 99 45 160 14z m319 -1 c82 -47 75 -186 -11 -229 -86
-44 -190 23 -190 122 0 103 108 161 201 107z m648 -276 c33 -90 71 -245 82
-343 38 -316 -128 -479 -550 -537 -169 -24 -479 -39 -651 -32 -400 16 -617
109 -708 304 -25 53 -27 67 -26 182 1 107 5 142 31 238 17 62 34 116 37 119 4
5 202 -36 252 -52 8 -2 6 -28 -7 -87 -10 -45 -19 -113 -19 -149 0 -55 4 -73
26 -105 15 -21 34 -45 43 -52 32 -26 118 -62 186 -77 98 -22 423 -31 623 -16
332 25 457 74 469 183 6 54 -18 184 -56 306 -20 65 -26 95 -18 97 23 8 252 74
259 74 4 1 16 -23 27 -53z"/>
</g>
</svg>
