<?xml version="1.0" standalone="no"?>
<!DOCTYPE svg PUBLIC "-//W3C//DTD SVG 20010904//EN"
 "http://www.w3.org/TR/2001/REC-SVG-20010904/DTD/svg10.dtd">
<svg version="1.0" xmlns="http://www.w3.org/2000/svg"
 width="500.000000pt" height="500.000000pt" viewBox="0 0 500.000000 500.000000"
 preserveAspectRatio="xMidYMid meet">

<g transform="translate(0.000000,500.000000) scale(0.100000,-0.100000)"
fill="#000000" stroke="none">
<path d="M2245 4040 c-123 -21 -167 -33 -275 -72 -438 -158 -797 -523 -948
-963 -92 -269 -107 -579 -41 -863 120 -521 514 -951 1028 -1123 727 -242 1527
85 1879 770 109 211 160 413 169 659 10 278 -45 527 -172 770 -205 392 -579
690 -1000 796 -194 49 -453 59 -640 26z m113 -706 c80 -16 152 -39 382 -120
120 -42 147 -47 242 -52 l106 -4 6 -52 c3 -28 8 -87 11 -131 4 -44 8 -92 11
-106 5 -26 4 -26 -71 -33 -352 -32 -743 -251 -855 -480 -83 -168 -51 -362 74
-456 153 -116 447 -130 726 -35 41 14 79 25 86 25 11 0 101 -247 93 -254 -17
-14 -179 -70 -261 -90 -359 -90 -708 -26 -898 164 -115 115 -160 232 -160 421
0 245 105 453 310 612 87 67 296 175 393 202 37 11 67 22 67 26 0 8 -136 44
-239 63 -101 19 -279 20 -381 2 -41 -8 -76 -13 -76 -12 -1 0 -12 64 -23 140
-24 158 -28 149 59 166 30 6 60 13 65 15 30 11 265 3 333 -11z m346 -974 c63
-31 81 -63 81 -142 0 -64 -2 -69 -36 -104 -124 -123 -322 9 -251 168 38 87
123 119 206 78z"/>
</g>
</svg>
