<?xml version="1.0" standalone="no"?>
<!DOCTYPE svg PUBLIC "-//W3C//DTD SVG 20010904//EN"
 "http://www.w3.org/TR/2001/REC-SVG-20010904/DTD/svg10.dtd">
<svg version="1.0" xmlns="http://www.w3.org/2000/svg"
 width="500.000000pt" height="500.000000pt" viewBox="0 0 500.000000 500.000000"
 preserveAspectRatio="xMidYMid meet">

<g transform="translate(0.000000,500.000000) scale(0.100000,-0.100000)"
fill="#000000" stroke="none">
<path d="M2290 4044 c-113 -14 -252 -50 -345 -89 -236 -98 -385 -195 -545
-355 -98 -98 -160 -175 -228 -287 -46 -74 -113 -206 -116 -228 -1 -5 -5 -15
-8 -21 -19 -30 -81 -260 -93 -344 -20 -137 -11 -424 16 -530 90 -354 203 -561
430 -790 170 -171 375 -299 599 -374 159 -53 198 -61 385 -77 371 -32 733 74
1053 308 127 93 317 299 378 408 6 11 20 36 32 55 34 55 92 180 113 240 10 30
23 64 29 75 5 11 20 74 34 140 31 149 43 379 26 491 -7 43 -13 89 -15 103 -15
114 -90 331 -155 451 -76 139 -100 176 -100 153 0 -7 5 -15 10 -18 6 -3 10
-11 10 -18 0 -6 -7 -1 -16 11 -8 12 -13 26 -9 32 17 27 -219 278 -355 376
-203 147 -433 243 -695 290 -67 12 -334 11 -435 -2z m610 -58 c0 -2 -7 -7 -16
-10 -8 -3 -12 -2 -9 4 6 10 25 14 25 6z m-211 -928 c29 -44 81 -132 116 -194
34 -63 65 -111 68 -108 3 3 3 -3 0 -15 -3 -13 -1 -21 8 -21 7 0 9 -3 6 -7 -4
-3 -3 -11 2 -17 5 -6 22 -54 37 -106 39 -134 39 -243 0 -320 -33 -66 -57 -94
-113 -130 -23 -15 -40 -29 -38 -32 3 -3 -1 -5 -8 -5 -6 -1 -43 -11 -82 -22
-86 -26 -244 -36 -345 -22 -123 17 -140 20 -150 26 -6 3 -18 8 -27 10 -44 8
-135 56 -130 67 3 7 19 49 36 93 18 44 41 101 52 126 l21 46 37 -19 c82 -40
217 -61 306 -47 80 12 85 14 122 43 37 30 37 30 18 125 -15 76 -158 327 -178
314 -6 -3 -7 -1 -3 5 7 12 -37 86 -46 77 -2 -3 -5 1 -5 8 0 6 -4 19 -7 28 -5
12 8 26 48 54 31 21 53 41 51 46 -3 4 0 11 6 15 8 4 9 3 5 -4 -13 -22 9 -12
64 27 30 22 60 40 65 40 6 1 35 -36 64 -81z m258 -450 c-3 -8 -6 -5 -6 6 -1
11 2 17 5 13 3 -3 4 -12 1 -19z m1090 -30 c-3 -8 -6 -5 -6 6 -1 11 2 17 5 13
3 -3 4 -12 1 -19z m-3010 -520 c-3 -8 -6 -5 -6 6 -1 11 2 17 5 13 3 -3 4 -12
1 -19z"/>
</g>
</svg>
