<?xml version="1.0" standalone="no"?>
<!DOCTYPE svg PUBLIC "-//W3C//DTD SVG 20010904//EN"
 "http://www.w3.org/TR/2001/REC-SVG-20010904/DTD/svg10.dtd">
<svg version="1.0" xmlns="http://www.w3.org/2000/svg"
 width="500.000000pt" height="500.000000pt" viewBox="0 0 500.000000 500.000000"
 preserveAspectRatio="xMidYMid meet">

<g transform="translate(0.000000,500.000000) scale(0.100000,-0.100000)"
fill="#000000" stroke="none">
<path d="M2245 4040 c-123 -21 -167 -33 -275 -72 -438 -158 -797 -523 -948
-963 -92 -269 -107 -579 -41 -863 120 -521 514 -951 1028 -1123 727 -242 1527
85 1879 770 109 211 160 413 169 659 10 278 -45 527 -172 770 -205 392 -579
690 -1000 796 -194 49 -453 59 -640 26z m272 -468 c88 -62 82 -206 -9 -262
-45 -27 -120 -27 -166 2 -100 62 -87 225 23 274 41 19 116 12 152 -14z m177
-530 c190 -289 283 -539 255 -688 -15 -81 -39 -123 -103 -182 -104 -95 -290
-137 -491 -112 -148 18 -315 69 -315 95 0 11 84 238 95 256 3 3 33 -4 67 -16
138 -49 283 -55 375 -15 68 30 78 73 43 175 -27 78 -87 188 -171 314 -39 57
-67 106 -64 110 6 6 237 159 243 160 1 1 31 -43 66 -97z"/>
</g>
</svg>
