<?xml version="1.0" standalone="no"?>
<!DOCTYPE svg PUBLIC "-//W3C//DTD SVG 20010904//EN"
 "http://www.w3.org/TR/2001/REC-SVG-20010904/DTD/svg10.dtd">
<svg version="1.0" xmlns="http://www.w3.org/2000/svg"
 width="500.000000pt" height="500.000000pt" viewBox="0 0 500.000000 500.000000"
 preserveAspectRatio="xMidYMid meet">

<g transform="translate(0.000000,500.000000) scale(0.100000,-0.100000)"
fill="#000000" stroke="none">
<path d="M2290 4044 c-113 -14 -252 -50 -345 -89 -236 -98 -385 -195 -545
-355 -98 -98 -160 -175 -228 -287 -46 -74 -113 -206 -116 -228 -1 -5 -4 -14
-8 -20 -19 -32 -80 -257 -93 -345 -11 -77 -14 -311 -4 -400 9 -88 44 -253 59
-281 5 -9 14 -35 20 -58 24 -92 136 -299 220 -411 182 -241 442 -433 720 -533
161 -58 223 -71 415 -88 372 -32 732 74 1054 310 125 91 317 298 377 406 6 11
20 36 32 55 34 55 92 180 113 240 10 30 23 64 29 75 5 11 20 74 34 140 31 149
43 379 26 491 -7 43 -13 89 -15 103 -14 112 -90 331 -157 454 -64 118 -67 122
-75 122 -18 0 -34 18 -29 31 10 25 -131 190 -265 310 -40 36 -157 124 -164
124 -3 0 -24 12 -48 27 -143 91 -365 172 -572 209 -67 12 -334 11 -435 -2z
m610 -58 c0 -2 -7 -7 -16 -10 -8 -3 -12 -2 -9 4 6 10 25 14 25 6z m-108 -966
c25 -55 47 -97 50 -94 3 3 9 0 14 -7 5 -8 3 -10 -6 -4 -10 6 -11 3 -6 -16 4
-13 19 -67 32 -119 86 -335 -67 -647 -406 -828 -74 -40 -242 -112 -259 -112
-5 0 -20 27 -33 60 -12 33 -27 60 -31 60 -5 0 -6 4 -3 9 3 5 -6 36 -19 70 -14
33 -25 64 -25 68 0 8 20 18 97 48 24 10 40 21 37 26 -3 5 2 6 11 3 8 -4 25 0
38 8 12 9 24 15 27 14 8 -1 101 64 140 98 19 16 35 37 35 45 0 9 7 15 15 14
21 -4 65 70 85 141 18 61 15 131 -10 218 -10 38 -99 233 -107 236 -21 9 -1 26
77 64 57 28 80 45 72 51 -7 5 -4 6 9 2 13 -3 38 4 65 20 24 13 47 25 50 25 4
0 26 -45 51 -100z m1245 -442 c-3 -8 -6 -5 -6 6 -1 11 2 17 5 13 3 -3 4 -12 1
-19z m-1827 -402 c0 -2 -7 -7 -16 -10 -8 -3 -12 -2 -9 4 6 10 25 14 25 6z
m-99 -183 c-12 -20 -14 -14 -5 12 4 9 9 14 11 11 3 -2 0 -13 -6 -23z"/>
<path d="M3780 3371 c0 -5 5 -13 10 -16 6 -3 10 -2 10 4 0 5 -4 13 -10 16 -5
3 -10 2 -10 -4z"/>
</g>
</svg>
