<?xml version="1.0" standalone="no"?>
<!DOCTYPE svg PUBLIC "-//W3C//DTD SVG 20010904//EN"
 "http://www.w3.org/TR/2001/REC-SVG-20010904/DTD/svg10.dtd">
<svg version="1.0" xmlns="http://www.w3.org/2000/svg"
 width="500.000000pt" height="500.000000pt" viewBox="0 0 500.000000 500.000000"
 preserveAspectRatio="xMidYMid meet">

<g transform="translate(0.000000,500.000000) scale(0.100000,-0.100000)"
fill="#000000" stroke="none">
<path d="M2245 4040 c-123 -21 -167 -33 -275 -72 -438 -158 -797 -523 -948
-963 -92 -269 -107 -579 -41 -863 120 -521 514 -951 1028 -1123 727 -242 1527
85 1879 770 109 211 160 413 169 659 10 278 -45 527 -172 770 -205 392 -579
690 -1000 796 -194 49 -453 59 -640 26z m403 -687 c51 -38 67 -70 67 -133 0
-67 -20 -102 -75 -134 -44 -26 -123 -25 -159 1 -106 79 -90 232 29 282 35 15
108 7 138 -16z m50 -597 c76 -173 95 -253 96 -396 1 -112 -2 -134 -28 -214
-67 -205 -217 -357 -469 -476 -130 -61 -185 -81 -191 -72 -4 7 -26 62 -87 215
l-19 48 42 17 c24 9 92 41 152 70 88 44 123 68 181 126 99 99 120 145 120 266
-1 103 -15 155 -89 313 l-36 78 132 65 c72 35 136 63 142 61 6 -2 30 -48 54
-101z"/>
</g>
</svg>
