<?xml version="1.0" standalone="no"?>
<!DOCTYPE svg PUBLIC "-//W3C//DTD SVG 20010904//EN"
 "http://www.w3.org/TR/2001/REC-SVG-20010904/DTD/svg10.dtd">
<svg version="1.0" xmlns="http://www.w3.org/2000/svg"
 width="500.000000pt" height="500.000000pt" viewBox="0 0 500.000000 500.000000"
 preserveAspectRatio="xMidYMid meet">

<g transform="translate(0.000000,500.000000) scale(0.100000,-0.100000)"
fill="#000000" stroke="none">
<path d="M2245 4040 c-123 -21 -167 -33 -275 -72 -438 -158 -797 -523 -948
-963 -92 -269 -107 -579 -41 -863 120 -521 514 -951 1028 -1123 727 -242 1527
85 1879 770 109 211 160 413 169 659 10 278 -45 527 -172 770 -205 392 -579
690 -1000 796 -194 49 -453 59 -640 26z m1494 -1095 c55 -177 76 -297 75 -445
0 -116 -3 -143 -22 -190 -43 -110 -110 -174 -231 -222 -49 -19 -75 -22 -201
-23 -139 0 -147 1 -208 29 -34 16 -76 44 -92 62 l-29 34 -49 -49 c-64 -64
-105 -76 -252 -76 -103 0 -121 3 -166 25 l-51 25 -16 -70 c-50 -212 -207 -366
-434 -426 -101 -27 -301 -36 -413 -20 -234 35 -403 153 -467 329 -52 141 -39
346 33 540 20 53 38 99 40 101 3 3 81 -23 241 -80 l21 -8 -30 -93 c-43 -129
-50 -253 -18 -326 26 -60 82 -115 149 -146 41 -19 64 -21 206 -21 156 0 162 1
223 29 80 37 141 103 165 178 35 112 21 243 -54 496 -17 57 -29 105 -27 107 9
9 284 73 289 67 3 -4 22 -72 43 -152 55 -214 86 -255 201 -267 136 -14 194 59
235 299 10 60 20 112 23 115 5 4 267 -34 273 -40 1 -1 -7 -63 -19 -138 -24
-155 -18 -187 37 -216 45 -24 198 -24 247 0 46 23 59 52 59 135 0 80 -16 149
-71 318 -22 69 -38 128 -36 130 9 9 251 82 274 83 20 1 26 -11 52 -94z"/>
</g>
</svg>
