<?xml version="1.0" standalone="no"?>
<!DOCTYPE svg PUBLIC "-//W3C//DTD SVG 20010904//EN"
 "http://www.w3.org/TR/2001/REC-SVG-20010904/DTD/svg10.dtd">
<svg version="1.0" xmlns="http://www.w3.org/2000/svg"
 width="500.000000pt" height="500.000000pt" viewBox="0 0 500.000000 500.000000"
 preserveAspectRatio="xMidYMid meet">

<g transform="translate(0.000000,500.000000) scale(0.100000,-0.100000)"
fill="#000000" stroke="none">
<path d="M2290 4044 c-113 -14 -252 -50 -345 -89 -236 -98 -385 -195 -545
-355 -98 -98 -160 -175 -228 -287 -46 -74 -113 -206 -116 -228 -1 -5 -4 -14
-8 -20 -19 -32 -80 -257 -93 -345 -11 -78 -14 -311 -4 -404 26 -241 143 -537
289 -732 63 -84 192 -224 206 -224 7 0 15 -7 18 -16 3 -8 11 -12 16 -9 6 4 9
1 8 -6 -3 -12 168 -149 186 -149 5 0 17 -6 25 -14 70 -61 384 -179 536 -202
153 -23 485 -26 485 -5 0 4 19 7 43 8 44 1 171 31 222 52 17 7 50 20 75 28 46
16 207 97 271 136 145 90 308 241 417 385 34 46 62 85 62 87 0 3 15 28 33 57
34 54 109 212 122 258 4 14 13 39 21 55 51 114 88 484 64 641 -7 43 -13 89
-15 103 -14 112 -90 331 -157 454 -64 118 -67 122 -75 122 -18 1 -34 18 -29
32 10 24 -130 187 -265 309 -40 35 -157 124 -164 124 -3 0 -24 12 -48 27 -143
91 -365 172 -572 209 -67 12 -334 11 -435 -2z m610 -58 c0 -2 -7 -7 -16 -10
-8 -3 -12 -2 -9 4 6 10 25 14 25 6z m94 -401 c63 -30 90 -113 56 -177 -11 -22
-17 -44 -14 -50 4 -7 2 -8 -5 -4 -6 4 -18 2 -26 -4 -46 -38 -126 -27 -174 24
-29 31 -39 117 -19 156 32 61 116 86 182 55z m-162 -275 c23 -11 65 -58 61
-67 -1 -2 2 -16 7 -32 10 -36 -16 -99 -55 -129 -33 -26 -119 -30 -149 -7 -10
8 -23 12 -28 9 -5 -3 -8 -2 -7 3 1 4 -7 29 -19 55 -18 41 -19 52 -9 81 35 95
112 129 199 87z m304 5 c136 -51 97 -254 -50 -257 -51 -1 -98 27 -121 73 -9
16 -13 29 -9 29 4 0 2 6 -4 13 -17 20 6 83 45 120 38 38 80 44 139 22z m-478
-20 c-3 -3 -9 2 -12 12 -6 14 -5 15 5 6 7 -7 10 -15 7 -18z m1057 -257 c2 -7
15 -52 30 -100 14 -48 30 -90 36 -93 5 -4 7 -11 3 -16 -3 -5 1 -44 10 -87 51
-258 35 -417 -52 -532 -15 -19 -26 -38 -24 -42 1 -5 -1 -7 -6 -6 -4 1 -27 -10
-51 -26 -95 -61 -151 -75 -316 -78 -124 -3 -216 26 -279 88 -41 41 -45 43 -51
24 -3 -11 -11 -20 -17 -20 -5 0 -7 -7 -4 -16 3 -9 2 -12 -5 -8 -6 3 -20 -3
-32 -14 -71 -66 -302 -78 -404 -21 -37 21 -44 23 -41 12 3 -17 -16 -90 -39
-146 -27 -67 -59 -120 -98 -159 -14 -16 -21 -28 -15 -28 6 0 8 -5 5 -10 -4 -6
-11 -8 -16 -5 -5 4 -28 -9 -52 -27 -77 -61 -180 -104 -307 -129 -76 -14 -321
-18 -313 -5 4 5 -12 7 -35 3 -23 -3 -44 -2 -47 3 -3 4 -22 11 -42 15 -21 3
-76 25 -123 47 -64 31 -101 57 -149 106 -36 36 -62 58 -58 48 4 -11 3 -15 -4
-11 -6 4 -8 14 -5 22 3 8 -5 36 -18 62 -41 79 -58 201 -46 311 6 51 13 96 15
100 2 4 7 26 10 49 2 22 9 49 14 58 5 10 22 52 38 93 16 41 33 74 39 73 5 -1
54 -18 108 -38 55 -19 107 -33 115 -30 9 3 12 3 8 -1 -4 -4 0 -12 8 -18 14
-10 12 -23 -16 -106 -26 -79 -32 -112 -33 -191 -1 -105 5 -125 62 -197 21 -27
40 -41 49 -38 9 4 11 2 7 -6 -5 -8 -2 -9 10 -5 9 4 15 3 12 -2 -6 -9 29 -26
79 -37 46 -11 256 -12 290 -2 17 5 40 11 53 14 91 18 180 114 200 216 8 40 8
169 0 224 -9 56 -55 228 -78 291 -15 40 -17 54 -7 60 7 4 68 22 137 39 69 18
131 33 139 35 10 3 23 -30 47 -121 19 -69 37 -136 39 -149 15 -63 53 -114 104
-139 78 -37 221 -10 206 38 -3 10 -1 21 4 25 7 4 8 -1 4 -11 -4 -12 -3 -15 5
-10 17 10 45 73 45 101 0 14 3 25 6 25 8 0 27 92 37 178 4 29 9 54 13 56 3 2
49 -4 101 -14 72 -14 98 -15 109 -7 12 10 13 9 7 -2 -7 -11 -1 -13 27 -9 l35
4 -5 -46 c-2 -25 -6 -63 -8 -85 -2 -22 -8 -69 -14 -104 -18 -113 24 -153 164
-155 90 -1 142 17 169 59 21 32 22 143 1 171 -8 10 -14 24 -15 29 0 6 5 3 10
-5 5 -8 10 -11 10 -5 0 15 -71 258 -82 279 -6 10 -14 32 -18 47 -8 28 -8 29
63 50 40 11 104 31 142 44 83 28 94 29 100 13z m322 -460 c-3 -8 -6 -5 -6 6
-1 11 2 17 5 13 3 -3 4 -12 1 -19z m-1860 -420 c-3 -8 -6 -5 -6 6 -1 11 2 17
5 13 3 -3 4 -12 1 -19z m0 -80 c-3 -8 -6 -5 -6 6 -1 11 2 17 5 13 3 -3 4 -12
1 -19z m-1150 -25 c-3 -10 -5 -4 -5 12 0 17 2 24 5 18 2 -7 2 -21 0 -30z
m1913 17 c0 -5 -5 -10 -11 -10 -5 0 -7 5 -4 10 3 6 8 10 11 10 2 0 4 -4 4 -10z"/>
<path d="M3780 3371 c0 -5 5 -13 10 -16 6 -3 10 -2 10 4 0 5 -4 13 -10 16 -5
3 -10 2 -10 -4z"/>
</g>
</svg>
