<?xml version="1.0" standalone="no"?>
<!DOCTYPE svg PUBLIC "-//W3C//DTD SVG 20010904//EN"
 "http://www.w3.org/TR/2001/REC-SVG-20010904/DTD/svg10.dtd">
<svg version="1.0" xmlns="http://www.w3.org/2000/svg"
 width="500.000000pt" height="500.000000pt" viewBox="0 0 500.000000 500.000000"
 preserveAspectRatio="xMidYMid meet">

<g transform="translate(0.000000,500.000000) scale(0.100000,-0.100000)"
fill="#000000" stroke="none">
<path d="M2290 4044 c-113 -14 -252 -50 -345 -89 -236 -98 -385 -195 -545
-355 -98 -98 -160 -175 -228 -287 -46 -74 -113 -206 -116 -228 -1 -5 -5 -15
-8 -21 -19 -30 -81 -260 -93 -344 -20 -137 -11 -424 16 -530 53 -208 104 -339
194 -495 42 -73 91 -135 100 -127 5 4 5 2 2 -5 -13 -21 177 -217 298 -308 185
-140 466 -262 668 -291 159 -23 487 -26 487 -5 0 4 19 7 43 7 51 1 167 29 222
54 22 9 58 23 80 30 41 13 202 94 266 133 144 89 312 244 417 385 34 46 62 85
62 87 0 3 15 28 33 57 34 54 109 212 122 258 4 14 13 39 21 55 51 114 88 484
64 641 -7 43 -13 89 -15 103 -15 114 -90 331 -155 451 -76 139 -100 176 -100
153 0 -7 5 -15 10 -18 6 -3 10 -11 10 -18 0 -6 -7 -1 -16 11 -8 12 -13 26 -9
32 11 19 -140 194 -266 305 -195 175 -482 307 -784 361 -67 12 -334 11 -435
-2z m610 -58 c0 -2 -7 -7 -16 -10 -8 -3 -12 -2 -9 4 6 10 25 14 25 6z m775
-1016 c32 -7 78 -23 102 -36 24 -14 49 -22 55 -18 6 4 8 3 5 -3 -8 -13 57 -76
67 -66 4 5 6 1 4 -7 -2 -8 2 -14 8 -13 7 1 11 -3 11 -10 -1 -7 12 -39 27 -72
36 -76 48 -201 28 -290 -20 -87 -76 -188 -131 -234 -51 -43 -169 -105 -245
-128 -271 -83 -827 -66 -1014 31 l-29 15 -7 -47 c-3 -26 -13 -69 -22 -97 -19
-60 -104 -191 -145 -223 -16 -13 -26 -28 -23 -34 4 -7 2 -8 -4 -4 -6 4 -35 -9
-63 -29 -28 -19 -56 -35 -61 -35 -5 0 -6 -4 -3 -10 3 -5 0 -7 -8 -4 -7 2 -35
-5 -62 -16 -75 -32 -120 -40 -260 -46 -114 -5 -159 -2 -295 20 -21 3 -126 43
-159 61 -16 8 -49 30 -75 50 -26 20 -52 33 -58 29 -7 -4 -8 -3 -4 4 4 7 -5 24
-19 39 -41 45 -82 135 -94 209 -15 92 -20 213 -9 220 4 3 8 17 8 32 0 15 11
70 25 122 14 52 27 104 30 114 2 11 9 22 13 25 5 3 12 16 16 29 7 22 42 30 62
14 5 -5 55 -24 112 -43 56 -19 102 -37 102 -41 0 -4 -14 -47 -30 -97 -36 -107
-45 -242 -20 -301 18 -43 48 -79 64 -76 6 2 8 1 4 -1 -14 -8 -8 -25 6 -20 9 4
13 1 10 -6 -5 -15 34 -39 102 -64 50 -18 204 -23 303 -8 56 8 122 35 115 46
-3 5 2 6 10 3 21 -8 88 61 116 120 19 41 23 66 24 150 1 56 -3 110 -8 121 -5
11 -10 37 -12 59 -1 21 -7 43 -13 49 -6 6 -11 20 -11 31 0 18 -13 69 -45 173
-10 32 -11 44 -2 51 7 5 57 19 112 31 55 12 117 29 137 36 41 16 42 15 53 -35
4 -19 10 -39 13 -45 3 -5 7 -20 8 -32 2 -13 11 -49 20 -81 10 -31 18 -59 18
-62 1 -3 8 -21 16 -40 16 -40 46 -68 99 -91 35 -16 36 -16 59 9 12 14 20 32
17 39 -2 8 -1 12 4 8 5 -3 20 9 33 27 32 45 55 74 111 132 26 28 45 57 42 64
-3 7 -1 10 4 7 5 -3 24 9 43 26 72 67 197 158 263 192 80 41 204 89 214 83 3
-3 21 -1 39 2 45 10 129 6 197 -8z m-605 -134 c0 -2 -7 -7 -16 -10 -8 -3 -12
-2 -9 4 6 10 25 14 25 6z m920 -491 c0 -5 -5 -3 -10 5 -8 12 -10 12 -10 1 0
-8 -2 -12 -5 -9 -3 3 -2 13 1 22 5 14 9 15 15 4 5 -7 9 -17 9 -23z m-2963
-287 c-3 -8 -6 -5 -6 6 -1 11 2 17 5 13 3 -3 4 -12 1 -19z"/>
<path d="M3468 2675 c-3 -3 -18 -8 -34 -11 -52 -8 -62 -15 -39 -25 16 -8 15
-8 -7 -4 -39 7 -79 -17 -207 -127 -81 -69 -104 -96 -95 -110 4 -7 3 -8 -5 -4
-11 7 -61 -35 -61 -51 0 -3 84 -3 188 1 264 8 393 43 456 122 24 31 28 42 23
80 -6 58 -43 106 -96 122 -42 12 -113 16 -123 7z"/>
</g>
</svg>
