<?xml version="1.0" standalone="no"?>
<!DOCTYPE svg PUBLIC "-//W3C//DTD SVG 20010904//EN"
 "http://www.w3.org/TR/2001/REC-SVG-20010904/DTD/svg10.dtd">
<svg version="1.0" xmlns="http://www.w3.org/2000/svg"
 width="500.000000pt" height="500.000000pt" viewBox="0 0 500.000000 500.000000"
 preserveAspectRatio="xMidYMid meet">

<g transform="translate(0.000000,500.000000) scale(0.100000,-0.100000)"
fill="#000000" stroke="none">
<path d="M2245 4040 c-123 -21 -167 -33 -275 -72 -438 -158 -797 -523 -948
-963 -92 -269 -107 -579 -41 -863 120 -521 514 -951 1028 -1123 727 -242 1527
85 1879 770 109 211 160 413 169 659 10 278 -45 527 -172 770 -205 392 -579
690 -1000 796 -194 49 -453 59 -640 26z m205 -999 c7 -215 16 -395 20 -401 5
-8 23 0 54 24 257 196 577 218 754 52 174 -163 175 -457 2 -626 -104 -102
-283 -168 -518 -191 -182 -18 -778 -2 -948 26 l-30 5 16 140 c9 77 19 142 22
145 3 3 52 1 108 -5 166 -17 163 -17 204 40 l36 50 0 108 c0 59 -7 289 -15
512 -8 223 -15 429 -15 458 l0 52 149 0 148 0 13 -389z m581 242 c70 -66 72
-162 5 -229 -58 -58 -154 -58 -212 0 -61 61 -64 157 -6 220 35 37 56 45 120
45 48 1 57 -3 93 -36z"/>
<path d="M2835 2512 c-96 -33 -224 -134 -337 -264 l-53 -61 190 6 c259 7 384
40 450 119 23 27 27 39 23 79 -12 118 -130 171 -273 121z"/>
</g>
</svg>
