<?xml version="1.0" standalone="no"?>
<!DOCTYPE svg PUBLIC "-//W3C//DTD SVG 20010904//EN"
 "http://www.w3.org/TR/2001/REC-SVG-20010904/DTD/svg10.dtd">
<svg version="1.0" xmlns="http://www.w3.org/2000/svg"
 width="500.000000pt" height="500.000000pt" viewBox="0 0 500.000000 500.000000"
 preserveAspectRatio="xMidYMid meet">

<g transform="translate(0.000000,500.000000) scale(0.100000,-0.100000)"
fill="#000000" stroke="none">
<path d="M2245 4040 c-123 -21 -167 -33 -275 -72 -438 -158 -797 -523 -948
-963 -92 -269 -107 -579 -41 -863 120 -521 514 -951 1028 -1123 727 -242 1527
85 1879 770 109 211 160 413 169 659 10 278 -45 527 -172 770 -205 392 -579
690 -1000 796 -194 49 -453 59 -640 26z m344 -129 c91 -65 85 -213 -12 -266
-25 -13 -48 -17 -89 -13 -89 7 -140 61 -140 147 0 72 37 127 102 154 30 13
107 0 139 -22z m66 -482 c33 -6 67 -14 74 -18 10 -7 9 -35 -10 -145 l-22 -136
-51 7 c-217 33 -346 -22 -346 -147 0 -72 53 -138 141 -174 32 -13 39 -12 105
15 71 28 242 75 298 81 l30 3 33 -130 c18 -71 33 -135 33 -141 0 -6 -30 -16
-67 -23 -206 -38 -382 -120 -494 -231 -107 -106 -134 -164 -134 -290 0 -85 3
-100 27 -141 77 -131 246 -197 472 -185 117 7 268 36 354 68 30 11 58 16 62
12 4 -5 25 -64 46 -132 25 -83 34 -126 27 -133 -16 -16 -150 -59 -253 -80
-458 -97 -866 32 -990 315 -64 143 -64 339 0 508 28 76 105 191 168 252 l51
49 -67 63 c-110 101 -149 198 -139 349 3 60 12 99 30 139 50 109 179 208 315
240 70 17 224 20 307 5z"/>
</g>
</svg>
