<?xml version="1.0" standalone="no"?>
<!DOCTYPE svg PUBLIC "-//W3C//DTD SVG 20010904//EN"
 "http://www.w3.org/TR/2001/REC-SVG-20010904/DTD/svg10.dtd">
<svg version="1.0" xmlns="http://www.w3.org/2000/svg"
 width="500.000000pt" height="500.000000pt" viewBox="0 0 500.000000 500.000000"
 preserveAspectRatio="xMidYMid meet">

<g transform="translate(0.000000,500.000000) scale(0.100000,-0.100000)"
fill="#000000" stroke="none">
<path d="M2245 4040 c-123 -21 -167 -33 -275 -72 -438 -158 -797 -523 -948
-963 -92 -269 -107 -579 -41 -863 120 -521 514 -951 1028 -1123 727 -242 1527
85 1879 770 109 211 160 413 169 659 10 278 -45 527 -172 770 -205 392 -579
690 -1000 796 -194 49 -453 59 -640 26z m862 -500 c18 -10 42 -38 54 -61 69
-137 -75 -278 -210 -207 -103 53 -109 200 -12 265 44 30 122 31 168 3z m80
-505 c113 -51 192 -166 234 -341 31 -126 31 -333 1 -456 -25 -102 -67 -200
-107 -246 -81 -96 -277 -141 -710 -163 -708 -36 -1028 64 -1110 346 -24 82
-16 235 20 375 15 58 31 109 35 113 4 5 65 -4 134 -20 93 -21 126 -32 126 -43
0 -8 -7 -44 -16 -80 -24 -100 -23 -187 2 -235 40 -78 160 -134 334 -155 187
-22 740 -6 865 26 73 18 100 35 121 75 19 38 15 43 -22 28 -46 -19 -229 -16
-296 4 -128 39 -187 119 -195 264 -14 243 132 472 336 530 69 20 179 10 248
-22z"/>
<path d="M2993 2772 c-49 -7 -103 -90 -103 -157 0 -57 72 -92 171 -81 85 8 90
12 83 55 -22 131 -74 195 -151 183z"/>
</g>
</svg>
