<?xml version="1.0" standalone="no"?>
<!DOCTYPE svg PUBLIC "-//W3C//DTD SVG 20010904//EN"
 "http://www.w3.org/TR/2001/REC-SVG-20010904/DTD/svg10.dtd">
<svg version="1.0" xmlns="http://www.w3.org/2000/svg"
 width="500.000000pt" height="500.000000pt" viewBox="0 0 500.000000 500.000000"
 preserveAspectRatio="xMidYMid meet">

<g transform="translate(0.000000,500.000000) scale(0.100000,-0.100000)"
fill="#000000" stroke="none">
<path d="M2245 4040 c-123 -21 -167 -33 -275 -72 -438 -158 -797 -523 -948
-963 -92 -269 -107 -579 -41 -863 120 -521 514 -951 1028 -1123 727 -242 1527
85 1879 770 109 211 160 413 169 659 10 278 -45 527 -172 770 -205 392 -579
690 -1000 796 -194 49 -453 59 -640 26z m470 -690 c46 -28 68 -80 63 -142 -4
-40 -12 -57 -41 -86 -30 -30 -44 -36 -89 -39 -150 -11 -215 162 -98 261 40 33
116 36 165 6z m345 5 c92 -48 105 -173 25 -244 -30 -26 -44 -31 -86 -31 -96 0
-149 53 -149 147 0 45 5 58 32 89 18 20 41 40 52 44 33 14 95 11 126 -5z
m-179 -465 c117 -22 214 -101 274 -224 58 -118 70 -181 69 -351 -1 -132 -4
-161 -28 -240 -58 -193 -152 -314 -302 -392 -153 -80 -384 -120 -628 -110
-363 15 -579 166 -617 432 -21 139 11 321 84 487 l25 57 128 -50 c71 -27 129
-49 130 -49 1 0 -14 -44 -33 -97 -39 -109 -52 -214 -34 -279 24 -89 129 -168
260 -195 79 -16 368 -6 446 16 64 18 123 46 168 79 29 21 84 103 75 111 -3 3
-29 1 -58 -5 -118 -22 -262 -2 -343 50 -62 39 -95 98 -109 196 -34 237 130
510 336 560 65 16 91 16 157 4z"/>
<path d="M2748 2590 c-26 -16 -60 -68 -69 -108 -12 -54 10 -97 57 -112 37 -13
162 -9 185 6 28 17 -24 181 -67 209 -26 17 -80 19 -106 5z"/>
</g>
</svg>
