<?xml version="1.0" standalone="no"?>
<!DOCTYPE svg PUBLIC "-//W3C//DTD SVG 20010904//EN"
 "http://www.w3.org/TR/2001/REC-SVG-20010904/DTD/svg10.dtd">
<svg version="1.0" xmlns="http://www.w3.org/2000/svg"
 width="500.000000pt" height="500.000000pt" viewBox="0 0 500.000000 500.000000"
 preserveAspectRatio="xMidYMid meet">

<g transform="translate(0.000000,500.000000) scale(0.100000,-0.100000)"
fill="#000000" stroke="none">
<path d="M2245 4040 c-123 -21 -167 -33 -275 -72 -438 -158 -797 -523 -948
-963 -92 -269 -107 -579 -41 -863 120 -521 514 -951 1028 -1123 727 -242 1527
85 1879 770 109 211 160 413 169 659 10 278 -45 527 -172 770 -205 392 -579
690 -1000 796 -194 49 -453 59 -640 26z m999 -787 c3 -43 16 -276 27 -518 18
-359 20 -456 10 -528 -16 -119 -43 -186 -101 -250 -109 -120 -292 -168 -695
-183 -678 -26 -994 158 -945 549 13 107 61 297 74 297 21 0 241 -52 249 -59 4
-4 -2 -50 -13 -102 -24 -117 -25 -163 -1 -214 24 -52 53 -78 123 -110 112 -51
178 -59 478 -60 232 0 285 3 340 18 136 37 187 94 197 220 4 52 -29 839 -41
975 l-4 42 148 0 148 0 6 -77z m-619 -283 c25 -49 45 -92 45 -95 0 -2 -17 -12
-37 -20 -60 -25 -103 -63 -103 -91 0 -14 21 -52 49 -89 48 -63 53 -71 65 -128
9 -40 -10 -102 -44 -141 -39 -44 -134 -90 -254 -122 -54 -14 -99 -24 -101 -22
-10 11 -55 202 -48 208 4 4 38 15 75 25 69 18 128 48 128 64 0 5 -20 34 -45
65 -101 123 -100 213 2 312 35 34 191 124 215 124 4 0 28 -40 53 -90z"/>
</g>
</svg>
