<?xml version="1.0" standalone="no"?>
<!DOCTYPE svg PUBLIC "-//W3C//DTD SVG 20010904//EN"
 "http://www.w3.org/TR/2001/REC-SVG-20010904/DTD/svg10.dtd">
<svg version="1.0" xmlns="http://www.w3.org/2000/svg"
 width="500.000000pt" height="500.000000pt" viewBox="0 0 500.000000 500.000000"
 preserveAspectRatio="xMidYMid meet">

<g transform="translate(0.000000,500.000000) scale(0.100000,-0.100000)"
fill="#000000" stroke="none">
<path d="M2245 4040 c-123 -21 -167 -33 -275 -72 -438 -158 -797 -523 -948
-963 -92 -269 -107 -579 -41 -863 120 -521 514 -951 1028 -1123 727 -242 1527
85 1879 770 109 211 160 413 169 659 10 278 -45 527 -172 770 -205 392 -579
690 -1000 796 -194 49 -453 59 -640 26z m749 -622 c3 -18 13 -285 22 -593 14
-448 15 -582 5 -672 -38 -367 -184 -579 -454 -662 -74 -22 -99 -25 -247 -25
-138 1 -178 4 -245 22 -152 42 -265 115 -336 218 -99 144 -103 389 -13 632 20
53 38 99 40 101 3 3 81 -23 241 -80 l21 -8 -31 -93 c-27 -81 -31 -107 -32
-203 0 -94 3 -116 22 -150 64 -119 209 -172 416 -153 177 17 272 107 313 297
21 101 15 580 -19 1334 l-3 67 148 0 147 0 5 -32z"/>
</g>
</svg>
