<?xml version="1.0" standalone="no"?>
<!DOCTYPE svg PUBLIC "-//W3C//DTD SVG 20010904//EN"
 "http://www.w3.org/TR/2001/REC-SVG-20010904/DTD/svg10.dtd">
<svg version="1.0" xmlns="http://www.w3.org/2000/svg"
 width="500.000000pt" height="500.000000pt" viewBox="0 0 500.000000 500.000000"
 preserveAspectRatio="xMidYMid meet">

<g transform="translate(0.000000,500.000000) scale(0.100000,-0.100000)"
fill="#000000" stroke="none">
<path d="M2245 4040 c-123 -21 -167 -33 -275 -72 -438 -158 -797 -523 -948
-963 -92 -269 -107 -579 -41 -863 120 -521 514 -951 1028 -1123 727 -242 1527
85 1879 770 109 211 160 413 169 659 10 278 -45 527 -172 770 -205 392 -579
690 -1000 796 -194 49 -453 59 -640 26z m447 -771 c244 -51 416 -351 368 -640
-13 -79 -53 -206 -69 -222 -6 -6 -47 -2 -118 14 -80 17 -140 23 -233 24 -119
0 -128 -1 -185 -30 -65 -33 -98 -72 -116 -139 -22 -79 11 -357 66 -565 14 -52
24 -95 23 -96 -15 -11 -271 -66 -278 -59 -12 14 -59 214 -86 374 -29 168 -35
347 -15 430 42 170 169 292 358 341 64 16 104 20 218 18 l140 -3 -3 50 c-7 96
-70 193 -138 210 -76 19 -164 -25 -223 -113 l-35 -52 -98 52 c-141 75 -135 69
-114 114 103 217 324 337 538 292z"/>
</g>
</svg>
