<?xml version="1.0" standalone="no"?>
<!DOCTYPE svg PUBLIC "-//W3C//DTD SVG 20010904//EN"
 "http://www.w3.org/TR/2001/REC-SVG-20010904/DTD/svg10.dtd">
<svg version="1.0" xmlns="http://www.w3.org/2000/svg"
 width="500.000000pt" height="500.000000pt" viewBox="0 0 500.000000 500.000000"
 preserveAspectRatio="xMidYMid meet">

<g transform="translate(0.000000,500.000000) scale(0.100000,-0.100000)"
fill="#000000" stroke="none">
<path d="M2245 4040 c-123 -21 -167 -33 -275 -72 -438 -158 -797 -523 -948
-963 -92 -269 -107 -579 -41 -863 120 -521 514 -951 1028 -1123 727 -242 1527
85 1879 770 109 211 160 413 169 659 10 278 -45 527 -172 770 -205 392 -579
690 -1000 796 -194 49 -453 59 -640 26z m284 -759 c42 -30 65 -76 65 -131 0
-58 -24 -102 -69 -130 -30 -18 -47 -22 -97 -18 -56 4 -64 8 -99 46 -36 38 -39
46 -39 98 0 69 25 116 78 144 48 26 117 22 161 -9z m490 -418 c16 -32 42 -99
59 -149 143 -426 33 -800 -278 -952 -135 -66 -189 -77 -380 -76 -184 1 -265
17 -387 75 -77 37 -177 131 -210 199 -76 155 -70 395 17 618 17 45 33 82 36
82 12 0 240 -82 247 -89 4 -4 -6 -55 -23 -112 -75 -246 -25 -394 153 -456 41
-14 82 -18 187 -18 116 1 143 4 191 23 114 45 186 136 209 262 20 109 -16 298
-84 446 -20 43 -35 82 -33 87 2 8 242 116 259 117 4 0 21 -26 37 -57z"/>
</g>
</svg>
