<?xml version="1.0" standalone="no"?>
<!DOCTYPE svg PUBLIC "-//W3C//DTD SVG 20010904//EN"
 "http://www.w3.org/TR/2001/REC-SVG-20010904/DTD/svg10.dtd">
<svg version="1.0" xmlns="http://www.w3.org/2000/svg"
 width="500.000000pt" height="500.000000pt" viewBox="0 0 500.000000 500.000000"
 preserveAspectRatio="xMidYMid meet">

<g transform="translate(0.000000,500.000000) scale(0.100000,-0.100000)"
fill="#000000" stroke="none">
<path d="M2245 4040 c-123 -21 -167 -33 -275 -72 -438 -158 -797 -523 -948
-963 -92 -269 -107 -579 -41 -863 120 -521 514 -951 1028 -1123 727 -242 1527
85 1879 770 109 211 160 413 169 659 10 278 -45 527 -172 770 -205 392 -579
690 -1000 796 -194 49 -453 59 -640 26z m251 -1106 c92 -76 224 -205 283 -279
247 -308 155 -713 -177 -784 -170 -36 -351 8 -444 107 -147 157 -111 425 90
660 l45 52 -38 33 -37 32 97 118 c53 64 100 117 104 117 4 0 38 -25 77 -56z"/>
<path d="M2435 2473 c-52 -67 -75 -127 -75 -196 0 -42 5 -54 33 -82 43 -43
104 -54 163 -30 80 31 106 133 58 227 -16 34 -112 138 -126 138 -4 0 -28 -26
-53 -57z"/>
</g>
</svg>
