<?xml version="1.0" standalone="no"?>
<!DOCTYPE svg PUBLIC "-//W3C//DTD SVG 20010904//EN"
 "http://www.w3.org/TR/2001/REC-SVG-20010904/DTD/svg10.dtd">
<svg version="1.0" xmlns="http://www.w3.org/2000/svg"
 width="500.000000pt" height="500.000000pt" viewBox="0 0 500.000000 500.000000"
 preserveAspectRatio="xMidYMid meet">

<g transform="translate(0.000000,500.000000) scale(0.100000,-0.100000)"
fill="#000000" stroke="none">
<path d="M2290 4044 c-113 -14 -252 -50 -345 -89 -236 -98 -385 -195 -545
-355 -98 -98 -160 -175 -228 -287 -46 -74 -113 -206 -116 -228 -1 -5 -4 -14
-8 -20 -19 -32 -80 -257 -93 -345 -20 -136 -11 -424 16 -530 90 -354 203 -561
430 -790 163 -163 354 -286 569 -363 161 -58 224 -71 415 -88 119 -10 324 -5
335 9 3 4 23 8 45 8 50 2 168 30 220 54 22 9 58 23 80 30 41 13 202 94 266
133 144 89 310 242 414 382 33 44 65 89 71 100 6 11 20 36 32 55 34 55 92 180
113 240 10 30 23 64 29 75 5 11 20 74 34 140 31 149 43 379 26 491 -7 43 -13
89 -15 103 -14 112 -90 331 -157 454 -64 118 -67 122 -75 122 -18 0 -34 18
-29 31 10 25 -131 190 -265 310 -40 36 -157 124 -164 124 -3 0 -24 12 -48 27
-143 91 -365 172 -572 209 -67 12 -334 11 -435 -2z m610 -58 c0 -2 -7 -7 -16
-10 -8 -3 -12 -2 -9 4 6 10 25 14 25 6z m-274 -1001 c127 -38 241 -197 289
-403 14 -57 14 -224 0 -307 -15 -89 -83 -244 -120 -275 -18 -15 -20 -34 -2
-24 7 4 9 3 4 -2 -5 -5 -12 -9 -16 -9 -4 0 -31 -22 -60 -50 -29 -27 -69 -60
-89 -73 -127 -79 -331 -144 -461 -146 l-75 -1 -12 60 c-30 156 -44 216 -49
225 -3 6 -1 11 4 11 26 3 30 4 37 11 4 4 25 5 47 1 23 -3 38 -2 35 3 -3 5 11
10 32 10 101 4 290 75 339 128 l24 25 -30 -8 c-30 -9 -139 -7 -195 2 -64 12
-151 61 -189 109 -20 26 -39 43 -41 37 -6 -19 -12 72 -12 181 0 118 15 177 71
276 60 110 140 186 232 219 49 18 176 18 237 0z m1411 -407 c-3 -8 -6 -5 -6 6
-1 11 2 17 5 13 3 -3 4 -12 1 -19z m-3010 -520 c-3 -8 -6 -5 -6 6 -1 11 2 17
5 13 3 -3 4 -12 1 -19z"/>
<path d="M2450 2673 c-35 -24 -47 -41 -65 -95 -15 -43 -15 -49 0 -78 13 -25
21 -30 38 -25 17 5 18 4 8 -4 -23 -15 24 -23 100 -17 35 2 70 5 78 5 10 1 12
13 7 50 -8 64 -42 145 -57 135 -7 -4 -9 -3 -5 4 8 13 -32 42 -59 42 -11 0 -32
-8 -45 -17z"/>
<path d="M3780 3371 c0 -5 5 -13 10 -16 6 -3 10 -2 10 4 0 5 -4 13 -10 16 -5
3 -10 2 -10 -4z"/>
</g>
</svg>
