<?xml version="1.0" standalone="no"?>
<!DOCTYPE svg PUBLIC "-//W3C//DTD SVG 20010904//EN"
 "http://www.w3.org/TR/2001/REC-SVG-20010904/DTD/svg10.dtd">
<svg version="1.0" xmlns="http://www.w3.org/2000/svg"
 width="500.000000pt" height="500.000000pt" viewBox="0 0 500.000000 500.000000"
 preserveAspectRatio="xMidYMid meet">

<g transform="translate(0.000000,500.000000) scale(0.100000,-0.100000)"
fill="#000000" stroke="none">
<path d="M2245 4040 c-123 -21 -167 -33 -275 -72 -438 -158 -797 -523 -948
-963 -92 -269 -107 -579 -41 -863 120 -521 514 -951 1028 -1123 727 -242 1527
85 1879 770 109 211 160 413 169 659 10 278 -45 527 -172 770 -205 392 -579
690 -1000 796 -194 49 -453 59 -640 26z m804 -781 c61 -9 202 -66 214 -85 2
-5 -15 -54 -40 -109 -25 -55 -49 -110 -54 -123 l-9 -22 -52 26 c-67 34 -158
43 -222 21 -133 -46 -229 -177 -186 -257 13 -25 58 -49 180 -100 269 -109 328
-171 302 -312 -17 -91 -59 -165 -142 -248 -169 -169 -381 -244 -685 -245 -188
0 -276 16 -403 75 -271 127 -356 399 -235 762 19 59 40 114 47 123 10 14 24
12 131 -26 66 -23 123 -45 127 -48 4 -4 -6 -49 -23 -101 -42 -130 -49 -229
-20 -296 56 -129 190 -194 402 -194 226 0 419 71 475 176 l19 35 -27 24 c-15
13 -71 40 -125 60 -145 56 -208 92 -263 152 -88 96 -91 206 -9 372 74 149 229
286 369 325 96 26 142 30 229 15z m-790 -1666 c61 -45 79 -143 38 -204 -46
-70 -140 -87 -208 -38 -88 62 -76 202 21 252 43 22 111 18 149 -10z m323 18
c36 -14 77 -60 90 -102 30 -100 -65 -204 -168 -184 -48 9 -101 58 -114 106
-31 113 85 221 192 180z"/>
</g>
</svg>
